<?xml version="1.0" encoding="UTF-8"?>
<svg version="1.1" xmlns="http://www.w3.org/2000/svg" width="48" height="48">
<path d="M0 0 C1.12535156 0.00580078 1.12535156 0.00580078 2.2734375 0.01171875 C3.02367187 0.00785156 3.77390625 0.00398438 4.546875 0 C10.14682697 0.01010822 10.14682697 0.01010822 11.2734375 1.13671875 C11.37224547 2.61324539 11.40422995 4.09439111 11.40625 5.57421875 C11.40818359 6.91613281 11.40818359 6.91613281 11.41015625 8.28515625 C11.40628906 9.22617187 11.40242188 10.1671875 11.3984375 11.13671875 C11.40423828 12.54824219 11.40423828 12.54824219 11.41015625 13.98828125 C11.40886719 14.88289063 11.40757813 15.7775 11.40625 16.69921875 C11.40512207 17.52550781 11.40399414 18.35179688 11.40283203 19.203125 C11.2734375 21.13671875 11.2734375 21.13671875 10.2734375 22.13671875 C7.5961237 22.23653089 4.95039575 22.2755175 2.2734375 22.26171875 C1.14808594 22.26751953 1.14808594 22.26751953 0 22.2734375 C-5.59995197 22.26332928 -5.59995197 22.26332928 -6.7265625 21.13671875 C-6.82537047 19.66019211 -6.85735495 18.17904639 -6.859375 16.69921875 C-6.86066406 15.80460937 -6.86195312 14.91 -6.86328125 13.98828125 C-6.85748047 12.57675781 -6.85748047 12.57675781 -6.8515625 11.13671875 C-6.85542969 10.19570313 -6.85929687 9.2546875 -6.86328125 8.28515625 C-6.86199219 7.39054687 -6.86070313 6.4959375 -6.859375 5.57421875 C-6.85768311 4.33478516 -6.85768311 4.33478516 -6.85595703 3.0703125 C-6.57547852 -1.12098898 -3.49910522 0.00631607 0 0 Z M-2.7265625 4.13671875 C-2.7265625 8.75671875 -2.7265625 13.37671875 -2.7265625 18.13671875 C0.5734375 18.13671875 3.8734375 18.13671875 7.2734375 18.13671875 C7.2734375 13.51671875 7.2734375 8.89671875 7.2734375 4.13671875 C3.9734375 4.13671875 0.6734375 4.13671875 -2.7265625 4.13671875 Z " fill="#0A42FF" transform="translate(32.7265625,21.86328125)"/>
<path d="M0 0 C1.12535156 0.00580078 1.12535156 0.00580078 2.2734375 0.01171875 C3.02367187 0.00785156 3.77390625 0.00398437 4.546875 0 C10.14682697 0.01010822 10.14682697 0.01010822 11.2734375 1.13671875 C11.37224547 2.61324539 11.40422995 4.09439111 11.40625 5.57421875 C11.40818359 6.91613281 11.40818359 6.91613281 11.41015625 8.28515625 C11.40628906 9.22617188 11.40242188 10.1671875 11.3984375 11.13671875 C11.40423828 12.54824219 11.40423828 12.54824219 11.41015625 13.98828125 C11.40886719 14.88289063 11.40757813 15.7775 11.40625 16.69921875 C11.40512207 17.52550781 11.40399414 18.35179688 11.40283203 19.203125 C11.2734375 21.13671875 11.2734375 21.13671875 10.2734375 22.13671875 C7.5961237 22.23653089 4.95039575 22.2755175 2.2734375 22.26171875 C1.14808594 22.26751953 1.14808594 22.26751953 0 22.2734375 C-5.59995197 22.26332928 -5.59995197 22.26332928 -6.7265625 21.13671875 C-6.82537047 19.66019211 -6.85735495 18.17904639 -6.859375 16.69921875 C-6.86066406 15.80460937 -6.86195312 14.91 -6.86328125 13.98828125 C-6.85748047 12.57675781 -6.85748047 12.57675781 -6.8515625 11.13671875 C-6.85542969 10.19570312 -6.85929688 9.2546875 -6.86328125 8.28515625 C-6.86199219 7.39054688 -6.86070313 6.4959375 -6.859375 5.57421875 C-6.85768311 4.33478516 -6.85768311 4.33478516 -6.85595703 3.0703125 C-6.57547852 -1.12098898 -3.49910522 0.00631607 0 0 Z M-2.7265625 4.13671875 C-2.7265625 8.75671875 -2.7265625 13.37671875 -2.7265625 18.13671875 C0.5734375 18.13671875 3.8734375 18.13671875 7.2734375 18.13671875 C7.2734375 13.51671875 7.2734375 8.89671875 7.2734375 4.13671875 C3.9734375 4.13671875 0.6734375 4.13671875 -2.7265625 4.13671875 Z " fill="#0A42FF" transform="translate(10.7265625,3.86328125)"/>
<path d="M0 0 C1.12535156 0.00580078 1.12535156 0.00580078 2.2734375 0.01171875 C3.02367187 0.00785156 3.77390625 0.00398438 4.546875 0 C10.14682697 0.01010822 10.14682697 0.01010822 11.2734375 1.13671875 C11.37217566 3.13471447 11.40315549 5.13629033 11.3984375 7.13671875 C11.40230469 8.77640625 11.40230469 8.77640625 11.40625 10.44921875 C11.2734375 13.13671875 11.2734375 13.13671875 10.2734375 14.13671875 C7.5961237 14.23653089 4.95039575 14.2755175 2.2734375 14.26171875 C1.14808594 14.26751953 1.14808594 14.26751953 0 14.2734375 C-5.59995197 14.26332928 -5.59995197 14.26332928 -6.7265625 13.13671875 C-6.82530066 11.13872303 -6.85628049 9.13714717 -6.8515625 7.13671875 C-6.85414062 6.04359375 -6.85671875 4.95046875 -6.859375 3.82421875 C-6.61880525 -1.04378087 -4.32449493 0.00780595 0 0 Z M-2.7265625 4.13671875 C-2.7265625 6.11671875 -2.7265625 8.09671875 -2.7265625 10.13671875 C0.5734375 10.13671875 3.8734375 10.13671875 7.2734375 10.13671875 C7.2734375 8.15671875 7.2734375 6.17671875 7.2734375 4.13671875 C3.9734375 4.13671875 0.6734375 4.13671875 -2.7265625 4.13671875 Z " fill="#0A42FF" transform="translate(10.7265625,29.86328125)"/>
<path d="M0 0 C1.12535156 0.00580078 1.12535156 0.00580078 2.2734375 0.01171875 C3.02367187 0.00785156 3.77390625 0.00398437 4.546875 0 C10.14682697 0.01010822 10.14682697 0.01010822 11.2734375 1.13671875 C11.37217566 3.13471447 11.40315549 5.13629033 11.3984375 7.13671875 C11.40230469 8.77640625 11.40230469 8.77640625 11.40625 10.44921875 C11.2734375 13.13671875 11.2734375 13.13671875 10.2734375 14.13671875 C7.5961237 14.23653089 4.95039575 14.2755175 2.2734375 14.26171875 C1.14808594 14.26751953 1.14808594 14.26751953 0 14.2734375 C-5.59995197 14.26332928 -5.59995197 14.26332928 -6.7265625 13.13671875 C-6.82530066 11.13872303 -6.85628049 9.13714717 -6.8515625 7.13671875 C-6.85414062 6.04359375 -6.85671875 4.95046875 -6.859375 3.82421875 C-6.61880525 -1.04378087 -4.32449493 0.00780595 0 0 Z M-2.7265625 4.13671875 C-2.7265625 6.11671875 -2.7265625 8.09671875 -2.7265625 10.13671875 C0.5734375 10.13671875 3.8734375 10.13671875 7.2734375 10.13671875 C7.2734375 8.15671875 7.2734375 6.17671875 7.2734375 4.13671875 C3.9734375 4.13671875 0.6734375 4.13671875 -2.7265625 4.13671875 Z " fill="#0A42FF" transform="translate(32.7265625,3.86328125)"/>
</svg>
