<?xml version="1.0" standalone="no"?>
<!DOCTYPE svg PUBLIC "-//W3C//DTD SVG 20010904//EN"
 "http://www.w3.org/TR/2001/REC-SVG-20010904/DTD/svg10.dtd">
<svg version="1.0" xmlns="http://www.w3.org/2000/svg"
 width="11472.000000pt" height="2775.000000pt" viewBox="0 0 11472.000000 2775.000000"
 preserveAspectRatio="xMidYMid meet">

<g transform="translate(0.000000,2775.000000) scale(0.100000,-0.100000)"
fill="#000000" stroke="none">
<path d="M13355 27733 c-435 -20 -687 -39 -1005 -74 -1921 -211 -3743 -808
-5420 -1777 -1183 -683 -2315 -1589 -3240 -2592 -2082 -2258 -3341 -5084
-3625 -8130 -34 -375 -47 -634 -52 -1110 -8 -666 15 -1155 82 -1750 391 -3471
2092 -6671 4760 -8958 1813 -1554 3991 -2611 6325 -3071 1318 -259 2701 -326
4050 -196 2763 267 5386 1366 7523 3150 572 477 1169 1067 1653 1630 1843
2149 2988 4824 3263 7625 325 3301 -501 6533 -2363 9245 -1302 1897 -3067
3449 -5121 4501 -1772 908 -3683 1411 -5710 1504 -193 9 -956 11 -1120 3z"/>
<path d="M63355 19444 c-375 -52 -628 -172 -844 -399 -160 -169 -257 -364
-307 -620 -27 -136 -25 -416 4 -552 67 -312 223 -558 471 -742 256 -190 623
-282 996 -251 307 26 538 110 750 275 247 191 401 459 451 780 20 134 15 407
-11 525 -48 219 -136 398 -272 551 -195 221 -444 358 -750 415 -84 16 -417 28
-488 18z"/>
<path d="M31350 13210 l0 -5280 2328 0 c2318 0 2464 2 2762 35 1600 179 2588
1029 2765 2378 82 627 0 1240 -226 1696 -313 633 -909 1063 -1722 1245 -321
72 -558 96 -1024 103 l-373 6 0 118 c0 117 0 119 23 119 68 0 313 24 457 45
1107 158 1824 710 2039 1571 57 229 66 311 66 629 0 229 -4 314 -18 405 -84
538 -300 966 -664 1310 -468 443 -1150 726 -2033 845 -372 50 -314 48 -2412
52 l-1968 4 0 -5281z m3804 3446 c638 -90 983 -332 1097 -771 21 -80 24 -112
24 -290 0 -213 -11 -291 -59 -433 -146 -428 -519 -673 -1115 -732 -60 -6 -431
-10 -892 -10 l-789 0 0 1131 0 1130 808 -4 c685 -3 825 -7 926 -21z m445
-4080 c386 -51 661 -143 901 -300 311 -204 501 -508 551 -883 16 -118 6 -443
-16 -543 -58 -258 -155 -448 -319 -618 -240 -250 -570 -402 -1016 -468 -102
-16 -240 -18 -1197 -21 l-1083 -4 0 1431 0 1431 1028 -4 c883 -3 1044 -6 1151
-21z"/>
<path d="M46025 15954 c-230 -23 -484 -76 -650 -134 -513 -182 -865 -544
-1039 -1071 -68 -206 -91 -318 -132 -666 l-5 -43 -145 0 c-79 0 -144 3 -144 6
0 16 -241 1751 -245 1762 -4 10 -333 12 -1622 10 l-1618 -3 0 -865 0 -865 718
-3 717 -2 0 -2210 0 -2210 -875 0 -875 0 0 -865 0 -865 2905 0 2905 0 0 865 0
865 -971 0 -970 0 4 1068 c4 1134 7 1191 58 1547 96 668 290 1140 594 1440
245 242 511 345 893 345 551 0 878 -194 1026 -608 52 -145 96 -437 96 -631 l0
-71 1055 0 c899 0 1056 2 1061 14 8 21 -15 490 -31 650 -92 868 -354 1506
-799 1949 -312 310 -686 490 -1193 573 -94 15 -614 28 -718 18z"/>
<path d="M72930 15953 c-283 -22 -579 -95 -787 -194 -196 -93 -391 -260 -522
-444 -146 -208 -266 -515 -320 -825 l-17 -95 -116 -3 -116 -3 -6 33 c-3 18
-46 335 -96 703 -50 369 -93 676 -95 683 -3 9 -202 12 -950 12 l-945 0 0
-3945 0 -3945 1060 0 1060 0 0 1998 c0 1989 4 2252 35 2511 97 795 405 1291
932 1501 262 104 636 136 918 79 415 -84 711 -392 831 -865 67 -265 64 -141
64 -2811 l0 -2413 1065 0 1066 0 -4 2728 c-3 2972 0 2791 -58 3137 -136 812
-537 1436 -1156 1802 -325 191 -730 310 -1198 353 -101 9 -539 11 -645 3z"/>
<path d="M109570 15950 c-744 -63 -1340 -255 -1851 -597 -308 -205 -622 -518
-842 -838 -233 -339 -412 -743 -526 -1185 -106 -411 -156 -802 -168 -1305 -11
-520 34 -974 142 -1411 202 -819 607 -1456 1237 -1947 599 -466 1406 -757
2358 -851 582 -58 1605 -41 2405 39 417 42 964 122 972 141 5 14 -194 1884
-201 1892 -3 2 -128 -14 -278 -37 -719 -109 -1167 -149 -1753 -158 -400 -6
-575 2 -825 37 -915 128 -1547 572 -1816 1278 l-24 62 2630 0 2629 0 5 33 c21
125 46 644 46 957 0 1115 -237 1978 -723 2623 -478 635 -1168 1038 -2058 1201
-292 54 -465 68 -874 71 -209 2 -427 -1 -485 -5z m844 -1869 c622 -112 1039
-515 1164 -1126 27 -128 42 -270 42 -385 l0 -90 -1660 0 c-1321 0 -1660 3
-1660 13 0 30 34 202 61 309 184 735 655 1189 1340 1293 147 22 558 14 713
-14z"/>
<path d="M50790 15889 c0 -2 -36 -413 -79 -914 -43 -500 -76 -913 -72 -916 3
-3 521 -18 1151 -33 1359 -33 1467 -39 1850 -102 811 -134 1241 -432 1340
-929 23 -111 30 -255 14 -255 -7 0 -54 9 -105 19 -267 55 -670 103 -1019 121
-253 13 -804 13 -1023 0 -1161 -71 -2031 -398 -2585 -974 -337 -350 -532 -763
-617 -1306 -26 -160 -32 -606 -11 -783 63 -545 252 -963 586 -1298 507 -507
1284 -757 2285 -736 299 7 470 24 713 72 873 175 1433 665 1621 1421 16 65 34
153 41 194 20 133 8 120 109 120 l89 0 6 -27 c2 -16 33 -403 68 -861 34 -459
65 -837 68 -841 3 -6 2944 62 2968 68 6 2 1 1641 -6 1641 -4 0 -260 36 -567
80 -307 44 -563 80 -567 80 -4 0 -8 708 -8 1573 0 969 -4 1614 -10 1682 -54
588 -226 1075 -523 1478 -505 686 -1355 1117 -2567 1301 -505 77 -917 101
-1915 111 -308 3 -712 8 -897 11 -186 4 -338 5 -338 3z m3300 -4709 c293 -12
481 -30 718 -70 97 -17 180 -30 184 -30 13 0 9 -90 -8 -191 -59 -347 -274
-707 -559 -939 -414 -336 -919 -486 -1570 -467 -682 20 -1045 273 -1081 755
-35 458 262 765 857 886 119 24 334 52 449 59 134 8 787 6 1010 -3z"/>
<path d="M88340 15889 c0 -2 -36 -413 -79 -914 -43 -500 -76 -913 -72 -916 3
-3 521 -18 1151 -33 1359 -33 1467 -39 1850 -102 811 -134 1241 -432 1340
-929 23 -111 30 -255 14 -255 -7 0 -54 9 -105 19 -267 55 -670 103 -1019 121
-253 13 -804 13 -1023 0 -1161 -71 -2031 -398 -2585 -974 -337 -350 -532 -763
-617 -1306 -26 -160 -32 -606 -11 -783 63 -545 252 -963 586 -1298 507 -507
1284 -757 2285 -736 299 7 470 24 713 72 873 175 1433 665 1621 1421 16 65 34
153 41 194 20 133 8 120 109 120 l89 0 6 -27 c2 -16 33 -403 68 -861 34 -459
65 -837 68 -841 3 -6 2944 62 2968 68 6 2 1 1641 -6 1641 -4 0 -260 36 -567
80 -307 44 -563 80 -567 80 -4 0 -8 708 -8 1573 0 969 -4 1614 -10 1682 -54
588 -226 1075 -523 1478 -505 686 -1355 1117 -2567 1301 -505 77 -917 101
-1915 111 -308 3 -712 8 -897 11 -186 4 -338 5 -338 3z m3300 -4709 c293 -12
481 -30 718 -70 97 -17 180 -30 184 -30 13 0 9 -90 -8 -191 -59 -347 -274
-707 -559 -939 -414 -336 -919 -486 -1570 -467 -682 20 -1045 273 -1081 755
-35 458 262 765 857 886 119 24 334 52 449 59 134 8 787 6 1010 -3z"/>
<path d="M59980 14885 l0 -935 1295 0 1295 0 0 -2080 0 -2080 -1530 0 -1530 0
0 -930 0 -930 3820 0 3820 0 0 930 0 930 -1230 0 -1230 0 -2 3013 -3 3012
-2352 3 -2353 2 0 -935z"/>
<path d="M77587 15813 c-3 -5 118 -1776 269 -3938 150 -2161 274 -3933 274
-3938 0 -4 624 -6 1387 -5 l1387 3 418 2960 c229 1628 417 2963 418 2968 0 4
20 7 45 7 25 0 45 -3 46 -7 0 -5 188 -1340 418 -2968 l417 -2960 1347 -3 1346
-2 6 32 c7 46 775 7800 775 7832 l0 26 -999 0 -1000 0 -6 -42 c-3 -24 -115
-1350 -250 -2948 -135 -1598 -247 -2931 -251 -2962 l-6 -58 -69 0 c-38 0 -69
2 -69 5 0 14 -941 5982 -945 5993 -3 9 -165 12 -760 12 -596 0 -757 -3 -760
-12 -2 -7 -214 -1345 -470 -2973 -256 -1628 -468 -2975 -471 -2992 l-6 -33
-68 0 -67 0 -6 93 c-3 50 -70 1393 -147 2982 -78 1590 -144 2900 -146 2913
l-4 22 -1025 0 c-563 0 -1026 -3 -1028 -7z"/>
<path d="M96437 15813 c-2 -5 634 -1779 1414 -3943 780 -2164 1419 -3936 1419
-3937 0 -2 613 -3 1363 -3 l1363 0 1417 3933 c779 2164 1417 3939 1417 3945 0
9 -269 12 -1076 12 l-1076 0 -10 -27 c-6 -16 -450 -1391 -987 -3058 l-977
-3030 -70 -3 -69 -3 -986 3058 -986 3058 -1076 3 c-592 1 -1078 -1 -1080 -5z"/>
</g>
</svg>
