<?xml version="1.0" encoding="UTF-8"?>
<svg version="1.1" xmlns="http://www.w3.org/2000/svg" width="50" height="50">
<path d="M0 0 C1.74599538 -0.02887034 3.49213022 -0.04937831 5.23828125 -0.06640625 C6.21063721 -0.07873291 7.18299316 -0.09105957 8.18481445 -0.10375977 C10.73993464 -0.00958527 12.75247971 0.33925948 15.1875 1.0625 C20.12485794 2.27660441 23.95194676 1.87631531 28.875 0.4609375 C31.54107825 -0.11736624 34.0245676 -0.09494562 36.75 -0.0625 C37.73484375 -0.05347656 38.7196875 -0.04445313 39.734375 -0.03515625 C40.85585937 -0.01775391 40.85585937 -0.01775391 42 0 C42.0246519 4.82380802 42.04283693 9.64757967 42.05493164 14.47143555 C42.05997174 16.11369464 42.06680378 17.75594923 42.07543945 19.39819336 C42.08751926 21.75375479 42.09323139 24.10925709 42.09765625 26.46484375 C42.10281754 27.20339096 42.10797882 27.94193817 42.11329651 28.7028656 C42.1134925 30.46898088 42.06194719 32.23497146 42 34 C41.67 34.33 41.34 34.66 41 35 C41.99 35.33 42.98 35.66 44 36 C44 25.44 44 14.88 44 4 C44.66 4 45.32 4 46 4 C46 15.22 46 26.44 46 38 C29.5 38 13 38 -4 38 C-4 26.78 -4 15.56 -4 4 C-3.34 4 -2.68 4 -2 4 C-2 14.56 -2 25.12 -2 36 C-0.515 35.505 -0.515 35.505 1 35 C0.67 34.67 0.34 34.34 0 34 C-0.08847743 31.47905924 -0.11527301 28.98569107 -0.09765625 26.46484375 C-0.09553383 25.33496788 -0.09553383 25.33496788 -0.09336853 24.18226624 C-0.08775376 21.7673044 -0.07519883 19.35243399 -0.0625 16.9375 C-0.0574869 15.30403779 -0.05292366 13.67057414 -0.04882812 12.03710938 C-0.03777954 8.02470415 -0.02050506 4.01236759 0 0 Z M20 12 C20 12.99 20 13.98 20 15 C20.66 15 21.32 15 22 15 C22 14.01 22 13.02 22 12 C21.34 12 20.68 12 20 12 Z M20 26 C20 26.99 20 27.98 20 29 C20.66 29 21.32 29 22 29 C22 28.01 22 27.02 22 26 C21.34 26 20.68 26 20 26 Z M10 36 C14 37 14 37 14 37 Z M28 36 C32 37 32 37 32 37 Z " fill="#0A41FF" transform="translate(4,6)"/>
</svg>
