<?xml version="1.0" encoding="UTF-8"?>
<svg version="1.1" xmlns="http://www.w3.org/2000/svg" width="64" height="64">
<path d="M0 0 C0.1134375 0.78632812 0.226875 1.57265625 0.34375 2.3828125 C0.76691417 5.23537277 0.76691417 5.23537277 3.5 6.875 C6 9 6 9 6.875 12.3125 C7.04853748 17.43185561 6.26828527 22.06658526 5 27 C5.55429687 27.32613281 6.10859375 27.65226562 6.6796875 27.98828125 C7.40414062 28.42527344 8.12859375 28.86226562 8.875 29.3125 C9.59429687 29.74175781 10.31359375 30.17101563 11.0546875 30.61328125 C13 32 13 32 15 35 C15.1953125 37.69921875 15.1953125 37.69921875 15.125 40.6875 C15.10695313 41.68136719 15.08890625 42.67523438 15.0703125 43.69921875 C15.04710938 44.45847656 15.02390625 45.21773437 15 46 C12.36 46 9.72 46 7 46 C7 47.65 7 49.3 7 51 C-8.84 51 -24.68 51 -41 51 C-41 49.35 -41 47.7 -41 46 C-43.64 46 -46.28 46 -49 46 C-49.78173626 36.08063542 -49.78173626 36.08063542 -46.875 32.0625 C-43.95078377 29.96469271 -41.04791199 27.9138052 -38 26 C-38.33386719 25.46375 -38.66773438 24.9275 -39.01171875 24.375 C-40.26687326 21.3586603 -40.09223503 19.24330468 -39.8125 16 C-39.73644531 14.96875 -39.66039062 13.9375 -39.58203125 12.875 C-38.95383777 9.77197717 -38.23855938 8.22253151 -36 6 C-35.01 6 -34.02 6 -33 6 C-33.33 4.35 -33.66 2.7 -34 1 C-20.69996144 -5.08846209 -13.90016895 -4.9072846 0 0 Z M-23.625 0 C-24.62789062 0.37125 -25.63078125 0.7425 -26.6640625 1.125 C-27.43492188 1.41375 -28.20578125 1.7025 -29 2 C-25.46437432 5.53562568 -20.88565806 6.48919934 -16 7 C-11.78047328 6.13084547 -7.94035316 4.72605348 -4 3 C-6.72511051 0.72037505 -6.72511051 0.72037505 -9.3125 1.25 C-12.24665579 2.06883417 -15.12389762 2.99670847 -18 4 C-18 3.01 -18 2.02 -18 1 C-16.35 0.67 -14.7 0.34 -13 0 C-17.36390654 -2.90927103 -18.89755258 -1.7590502 -23.625 0 Z M-27 7 C-27 7.99 -27 8.98 -27 10 C-19.62178 11.79283851 -14.31371832 12.15814639 -7 10 C-7 9.01 -7 8.02 -7 7 C-8.175625 7.350625 -9.35125 7.70125 -10.5625 8.0625 C-14.65925329 9.09030736 -17.83573312 8.8642818 -22 8 C-22.969375 7.814375 -23.93875 7.62875 -24.9375 7.4375 C-25.9584375 7.2209375 -25.9584375 7.2209375 -27 7 Z M-4 7 C-4.14750013 11.02953375 -4.14750013 11.02953375 -3.375 14.9453125 C-2.88126845 17.65054997 -3.60209359 18.75993679 -4.9375 21.125 C-6.57641702 23.89943973 -6.57641702 23.89943973 -7 27 C-4.525 27.99 -4.525 27.99 -2 29 C3.0813199 22.80610359 3.0813199 22.80610359 4.0625 15.125 C3.54330575 11.79499549 2.61568999 10.14070151 0 8 C-2.10332891 7.28552357 -2.10332891 7.28552357 -4 7 Z M-35 9 C-36.61121791 12.80404618 -37.33808885 16.67837995 -36.3125 20.6875 C-35.879375 21.450625 -35.44625 22.21375 -35 23 C-34.195625 24.6396875 -34.195625 24.6396875 -33.375 26.3125 C-32.92125 27.199375 -32.4675 28.08625 -32 29 C-30.35 28.34 -28.7 27.68 -27 27 C-27.28875 26.319375 -27.5775 25.63875 -27.875 24.9375 C-30.21798054 18.81971747 -31.33230048 14.52827235 -30 8 C-32.21081851 7.89459074 -32.21081851 7.89459074 -35 9 Z M-27 13 C-27.65772428 16.02934491 -27.65772428 16.02934491 -28 19 C-27.34 19 -26.68 19 -26 19 C-25.690625 20.3303125 -25.690625 20.3303125 -25.375 21.6875 C-23.54907065 26.0863298 -22.05795202 27.50279876 -18 30 C-14.77356275 29.89717584 -14.77356275 29.89717584 -12 28 C-8.7138797 23.97488597 -8.7138797 23.97488597 -8 19 C-7.34 19 -6.68 19 -6 19 C-5.67 18.01 -5.34 17.02 -5 16 C-5.66 16 -6.32 16 -7 16 C-7 15.01 -7 14.02 -7 13 C-9.91460777 11.65802249 -9.91460777 11.65802249 -12.3125 13 C-16.25833376 14.46821721 -19.29504631 13.47359825 -23.25 12.375 C-25.0976086 11.7885147 -25.0976086 11.7885147 -27 13 Z M-40.625 31.6875 C-41.40101562 32.18636719 -42.17703125 32.68523438 -42.9765625 33.19921875 C-45.35099185 35.31236919 -46.12522121 36.96743354 -47 40 C-46.71260075 42.24240782 -46.71260075 42.24240782 -46 44 C-44.35 44 -42.7 44 -41 44 C-40.773125 42.783125 -40.54625 41.56625 -40.3125 40.3125 C-39.25685524 36.02156987 -37.39091103 33.88227437 -34 31 C-33.34 30.34 -32.68 29.68 -32 29 C-36.24277971 29 -37.23075982 29.43413319 -40.625 31.6875 Z M-26 29 C-30.82321139 31.4116057 -35.83743284 34.5834685 -38.125 39.625 C-38.90359928 42.62816866 -39.36132882 44.92870499 -39 48 C-37.05136075 49.94863925 -34.1019128 49.1291874 -31.50878906 49.13894653 C-30.59838867 49.1369223 -29.68798828 49.13489807 -28.75 49.1328125 C-27.82155273 49.13376923 -26.89310547 49.13472595 -25.93652344 49.13571167 C-23.96940035 49.13639355 -22.00227504 49.13453872 -20.03515625 49.13037109 C-17.01296974 49.12502295 -13.99093185 49.13031582 -10.96875 49.13671875 C-9.06249967 49.13605797 -7.15624943 49.13477681 -5.25 49.1328125 C-3.88439941 49.13584885 -3.88439941 49.13584885 -2.49121094 49.13894653 C1.57663678 49.53891332 1.57663678 49.53891332 5 48 C5.04391177 43.7493404 4.53729119 40.02786141 2.5625 36.25 C-1.18804703 32.95683675 -5.46932281 31.03188767 -10 29 C-10.66 29.66 -11.32 30.32 -12 31 C-16.42325408 32.17953442 -18.9070966 31.99114219 -23 30 C-23.99 29.67 -24.98 29.34 -26 29 Z M1 29 C1 29.99 1 30.98 1 32 C1.61875 32.556875 2.2375 33.11375 2.875 33.6875 C5.84470549 36.91923833 6.1453383 39.72669151 7 44 C8.65 44 10.3 44 12 44 C12.41828808 39.73346158 12.54738997 37.70838702 9.875 34.25 C7.0281304 32.0220151 4.300084 30.45817665 1 29 Z " fill="#0A41FF" transform="translate(49,7)"/>
<path d="M0 0 C5.72357724 0.91056911 5.72357724 0.91056911 8.125 1.6875 C10.64665652 2.10777609 11.78031671 1.17920675 14 0 C15.32 0 16.64 0 18 0 C18 0.99 18 1.98 18 3 C13.78672212 5.40758736 10.8641549 6.60801936 6 6 C2.625 4.5 2.625 4.5 0 3 C0 2.01 0 1.02 0 0 Z " fill="#0842FF" transform="translate(23,39)"/>
<path d="M0 0 C0.66 0 1.32 0 2 0 C2 1.32 2 2.64 2 4 C1.34 4 0.68 4 0 4 C0 2.68 0 1.36 0 0 Z " fill="#0A41FF" transform="translate(51,50)"/>
<path d="M0 0 C0.66 0 1.32 0 2 0 C2 1.32 2 2.64 2 4 C1.34 4 0.68 4 0 4 C0 2.68 0 1.36 0 0 Z " fill="#0A41FF" transform="translate(46,50)"/>
<path d="M0 0 C0.66 0 1.32 0 2 0 C2 1.32 2 2.64 2 4 C1.34 4 0.68 4 0 4 C0 2.68 0 1.36 0 0 Z " fill="#0A41FF" transform="translate(41,50)"/>
<path d="M0 0 C0.66 0 1.32 0 2 0 C2 1.32 2 2.64 2 4 C1.34 4 0.68 4 0 4 C0 2.68 0 1.36 0 0 Z " fill="#0A41FF" transform="translate(36,50)"/>
<path d="M0 0 C0.66 0 1.32 0 2 0 C2 1.32 2 2.64 2 4 C1.34 4 0.68 4 0 4 C0 2.68 0 1.36 0 0 Z " fill="#0A41FF" transform="translate(31,50)"/>
<path d="M0 0 C0.66 0 1.32 0 2 0 C2 1.32 2 2.64 2 4 C1.34 4 0.68 4 0 4 C0 2.68 0 1.36 0 0 Z " fill="#0A41FF" transform="translate(26,50)"/>
<path d="M0 0 C0.66 0 1.32 0 2 0 C2 1.32 2 2.64 2 4 C1.34 4 0.68 4 0 4 C0 2.68 0 1.36 0 0 Z " fill="#0A41FF" transform="translate(21,50)"/>
<path d="M0 0 C0.66 0 1.32 0 2 0 C2 1.32 2 2.64 2 4 C1.34 4 0.68 4 0 4 C0 2.68 0 1.36 0 0 Z " fill="#0A41FF" transform="translate(16,50)"/>
<path d="M0 0 C0.66 0 1.32 0 2 0 C2 1.32 2 2.64 2 4 C1.34 4 0.68 4 0 4 C0 2.68 0 1.36 0 0 Z " fill="#0A41FF" transform="translate(11,50)"/>
</svg>
